# Blender3D v249 OBJ File: alkogaleria.blend
# www.blender3d.org
mtllib beam.mtl
v 15.000000 8.000000 -14.999995
v -15.000000 8.000000 -14.999995
v 15.000000 8.000001 14.999996
v -15.000000 8.000001 14.999996
v 0.000000 8.000001 14.999998
v 0.000000 8.000000 -14.999998
v 7.499998 8.000001 14.999996
v -7.499998 8.000001 14.999996
v 7.500002 8.000000 -14.999996
v -7.500002 8.000000 -14.999996
v 8.999998 8.000001 14.999996
v -8.999998 8.000001 14.999996
v 9.000000 8.000000 -14.999996
v -9.000000 8.000000 -14.999996
v 9.000000 7.500000 -14.999996
v -9.000000 7.500000 -14.999996
v 8.999998 7.500000 14.999996
v -8.999998 7.500000 14.999996
v 7.500002 7.500000 -14.999996
v -7.500002 7.500000 -14.999996
v 7.499998 7.500000 14.999996
v -7.499998 7.500000 14.999996
v 7.499998 8.000001 14.999996
v -7.499998 8.000001 14.999996
v 7.500002 8.000000 -14.999996
v -7.500002 8.000000 -14.999996
v 9.000000 8.000000 -14.999996
v -9.000000 8.000000 -14.999996
v 8.999998 8.000001 14.999996
v -8.999998 8.000001 14.999996
v 7.499998 7.500000 14.999996
v -7.499998 7.500000 14.999996
v 7.500002 7.500000 -14.999996
v -7.500002 7.500000 -14.999996
v 8.999998 7.500000 14.999996
v -8.999998 7.500000 14.999996
v 9.000000 7.500000 -14.999996
v -9.000000 7.500000 -14.999996
vt 4.974493 1.869452
vt 4.974493 2.087579
vt 0.005855 2.086238
vt 0.005857 1.868111
vt 0.005855 1.229453
vt 0.005855 0.999527
vt 4.974493 1.000941
vt 4.974493 1.230867
vt 4.972881 1.873217
vt 0.003193 1.865693
vt 0.003193 1.225637
vt 4.972881 1.233161
vt 0.005855 0.002605
vt 4.974493 0.010239
vt 4.974493 1.004030
vt 0.005855 0.996394
vt 4.974493 3.333012
vt 0.005855 3.325378
vt 0.005857 2.083140
vt 4.974493 2.090778
vn -1.000000 0.000000 0.000000
vn 1.000000 0.000000 0.000000
vn 0.000000 -1.000000 0.000000
usemtl beam_sufit.jpg
s off
f 28/1/1 38/2/1 36/3/1
f 28/1/1 36/3/1 30/4/1
f 35/3/2 37/2/2 27/1/2
f 35/3/2 27/1/2 29/4/2
f 24/5/2 32/6/2 34/7/2
f 24/5/2 34/7/2 26/8/2
f 33/7/1 31/6/1 23/5/1
f 33/7/1 23/5/1 25/8/1
f 20/9/3 22/10/3 18/11/3
f 20/9/3 18/11/3 16/12/3
f 17/11/3 21/10/3 19/9/3
f 17/11/3 19/9/3 15/12/3
f 4/13/3 2/14/3 14/15/3
f 4/13/3 14/15/3 12/16/3
f 13/15/3 1/14/3 3/13/3
f 13/15/3 3/13/3 11/16/3
f 6/17/3 5/18/3 8/19/3
f 6/17/3 8/19/3 10/20/3
f 7/19/3 5/18/3 6/17/3
f 7/19/3 6/17/3 9/20/3
