# Blender3D v249 OBJ File: alkogaleria.blend
# www.blender3d.org
mtllib floor.mtl
v 0.000000 0.000001 -14.999994
v 0.000000 -0.000001 14.000002
v 7.500000 -0.000000 -14.999997
v -7.500000 -0.000000 -14.999997
v 7.500002 -0.000001 14.000000
v -7.500002 -0.000001 14.000000
v 0.000000 -0.000000 0.000004
v 7.500000 0.000000 0.000001
v -7.500000 0.000000 0.000001
v 3.750000 0.000001 -14.999995
v -3.750000 0.000001 -14.999995
v 3.750003 -0.000001 14.000000
v -3.750003 -0.000001 14.000000
v 3.750001 -0.000000 0.000003
v -3.750001 -0.000000 0.000003
v 0.000000 0.000000 -7.499995
v 7.500000 -0.000000 -7.499999
v -7.500000 -0.000000 -7.499999
v 3.750001 0.000000 -7.499996
v -3.750001 0.000000 -7.499996
v 0.000000 -0.000000 9.500003
v 7.500001 -0.000000 9.500000
v -7.500001 -0.000000 9.500000
v 3.750002 -0.000000 9.500001
v -3.750002 -0.000000 9.500001
v 9.000000 1.000684 13.999997
v -9.000000 1.000684 13.999997
v 7.500002 1.000684 13.999998
v -7.500002 1.000684 13.999998
v 7.500000 1.000682 9.500000
v -7.500000 1.000682 9.500000
v 7.500002 1.000681 14.000000
v -7.500002 1.000681 14.000000
v 7.500001 1.000682 0.000002
v -7.500001 1.000682 0.000002
v 7.500001 0.000682 9.500000
v -7.500001 0.000682 9.500000
v 7.500001 0.000682 0.000002
v -7.500001 0.000682 0.000002
v 7.500002 0.000681 14.000000
v -7.500002 0.000681 14.000000
v 0.000000 -0.000001 15.000002
v 3.750003 -0.000001 15.000000
v -3.750003 -0.000001 15.000000
v 7.500002 -0.000001 15.000000
v -7.500002 -0.000001 15.000000
v 9.000000 1.000684 14.999997
v -9.000000 1.000684 14.999997
v 7.500002 1.000684 14.999998
v -7.500002 1.000684 14.999998
v 7.500002 1.000681 14.999998
v -7.500002 1.000681 14.999998
v 7.500002 0.000681 14.999998
v -7.500002 0.000681 14.999998
v 7.500002 0.000681 14.000000
v -7.500002 0.000681 14.000000
v 7.500002 0.500683 13.999998
v -7.500002 0.500683 13.999998
v 7.500001 0.500683 9.500000
v -7.500001 0.500683 9.500000
v 7.500001 0.000681 9.500000
v -7.500001 0.000681 9.500000
v 8.999999 0.500682 13.999998
v -8.999999 0.500682 13.999998
v 8.999998 0.500682 9.500000
v -8.999998 0.500682 9.500000
v 7.500001 0.500682 9.500000
v -7.500001 0.500682 9.500000
v 7.500002 0.500682 13.999998
v -7.500002 0.500682 13.999998
v 9.000000 0.500684 13.999997
v -9.000000 0.500684 13.999997
v 9.000000 0.500685 9.499999
v -9.000000 0.500685 9.499999
v 9.000000 1.000684 13.999997
v -9.000000 1.000684 13.999997
v 9.000000 1.000685 9.499999
v -9.000000 1.000685 9.499999
v 7.500002 1.000682 13.999998
v -7.500002 1.000682 13.999998
v 8.999999 1.000682 13.999998
v -8.999999 1.000682 13.999998
v 7.500001 1.000682 9.500000
v -7.500001 1.000682 9.500000
v 8.999998 1.000682 9.500000
v -8.999998 1.000682 9.500000
v 7.500002 0.500682 13.999998
v -7.500002 0.500682 13.999998
v 7.500001 0.500682 9.500000
v -7.500001 0.500682 9.500000
v 8.999998 0.500682 9.500000
v -8.999998 0.500682 9.500000
v 8.999999 0.500682 13.999998
v -8.999999 0.500682 13.999998
v 14.999998 -0.000000 -7.499999
v -14.999998 -0.000000 -7.499999
v 14.999999 0.000000 0.000000
v -14.999999 0.000000 0.000000
v 14.999999 -0.000001 -14.999998
v -14.999999 -0.000001 -14.999998
v 9.500001 0.499999 1.499999
v -9.500001 0.499999 1.499999
v 14.000000 0.500000 1.499998
v -14.000000 0.500000 1.499998
v 14.000000 0.500000 0.000001
v -14.000000 0.500000 0.000001
v 9.500001 0.499999 0.000001
v -9.500001 0.499999 0.000001
v 14.000000 0.999999 1.499998
v -14.000000 0.999999 1.499998
v 14.000000 0.999999 0.000001
v -14.000000 0.999999 0.000001
v 9.500001 0.999999 1.499999
v -9.500001 0.999999 1.499999
v 9.500001 0.999999 0.000001
v -9.500001 0.999999 0.000001
v 14.000000 1.000002 1.500000
v -14.000000 1.000002 1.500000
v 9.500001 1.000001 1.500000
v -9.500001 1.000001 1.500000
v 14.000000 0.500003 1.500000
v -14.000000 0.500003 1.500000
v 9.500001 0.500002 1.500000
v -9.500001 0.500002 1.500000
v 9.500001 0.499999 0.000001
v -9.500001 0.499999 0.000001
v 14.000000 0.500000 0.000001
v -14.000000 0.500000 0.000001
v 14.000000 0.500000 1.499998
v -14.000000 0.500000 1.499998
v 9.500001 0.499999 1.499999
v -9.500001 0.499999 1.499999
v 14.000000 -0.000002 0.000001
v -14.000000 -0.000002 0.000001
v 14.000000 0.500000 0.000001
v -14.000000 0.500000 0.000001
v 9.500001 0.500000 0.000001
v -9.500001 0.500000 0.000001
v 9.499999 -0.000001 0.000002
v -9.499999 -0.000001 0.000002
v 15.000000 1.000000 1.500000
v -15.000000 1.000000 1.500000
v 15.000000 1.000001 15.000000
v -15.000000 1.000001 15.000000
v 9.000004 1.000001 15.000000
v -9.000004 1.000001 15.000000
v 9.000004 1.000000 1.500000
v -9.000004 1.000000 1.500000
v 8.999999 1.000000 1.500000
v -8.999999 1.000000 1.500000
v 8.999999 1.000000 9.500000
v -8.999999 1.000000 9.500000
v 7.500000 1.000000 9.500000
v -7.500000 1.000000 9.500000
v 7.500000 1.000000 1.499999
v -7.500000 1.000000 1.499999
v 9.500001 1.000000 0.000000
v -9.500001 1.000000 0.000000
v 9.500001 1.000000 1.500000
v -9.500001 1.000000 1.500000
v 7.500000 1.000000 1.500000
v -7.500000 1.000000 1.500000
v 7.500000 1.000000 -0.000000
v -7.500000 1.000000 -0.000000
v 7.500000 1.000000 -0.000000
v -7.500000 1.000000 -0.000000
v 7.500000 -0.000000 0.000000
v -7.500000 -0.000000 0.000000
v 9.499999 -0.000000 0.000000
v -9.499999 -0.000000 0.000000
v 9.499999 1.000000 -0.000000
v -9.499999 1.000000 -0.000000
v 13.999999 -0.000001 -0.000001
v -13.999999 -0.000001 -0.000001
v 13.999999 0.999998 0.000000
v -13.999999 0.999998 0.000000
v 13.999999 1.000001 0.000000
v -13.999999 1.000001 0.000000
v 13.999999 1.000002 1.500000
v -13.999999 1.000002 1.500000
v 14.999998 -0.000001 -0.000001
v -14.999998 -0.000001 -0.000001
v 14.999998 0.999998 0.000000
v -14.999998 0.999998 0.000000
v 14.999998 1.000002 0.000000
v -14.999998 1.000002 0.000000
v 14.999998 1.000002 1.500000
v -14.999998 1.000002 1.500000
vt 1.706530 7.751463
vt 1.706530 8.019952
vt 2.109263 8.019952
vt 2.109263 7.751463
vt 1.706531 7.348732
vt 1.975021 7.348732
vt 1.975020 6.945997
vt 1.706531 6.945997
vt 1.169554 7.751463
vt 1.169554 8.154197
vt 1.706530 8.154197
vt 0.003617 3.851164
vt -0.151262 3.851164
vt -0.151262 4.191552
vt 0.003617 4.191552
vt 0.003607 4.191478
vt 2.151518 4.191478
vt 2.151518 3.788745
vt 0.003607 3.788745
vt 0.003828 3.788633
vt 3.628427 3.788633
vt 3.628427 2.177703
vt 0.003828 2.177702
vt 2.377753 7.751463
vt 2.377752 7.550097
vt 1.169554 7.550097
vt 0.001593 0.034612
vt 0.979991 0.034607
vt 0.979989 -1.854884
vt 0.001592 -1.854880
vt 1.958387 0.034604
vt 1.958385 -1.854886
vt -0.038646 7.952831
vt -0.038646 8.154198
vt 1.169553 8.154198
vt 1.169554 7.952831
vt 1.940636 0.034412
vt 0.970916 0.034414
vt 1.940636 0.981584
vt 0.970917 0.981585
vt -0.145183 4.593876
vt 2.405460 4.593879
vt 2.405460 4.191144
vt -0.145183 4.191144
vt 0.001198 1.928760
vt 0.970917 1.928757
vt 0.001197 0.981588
vt 0.001196 0.034416
vt 1.940636 1.928754
vt 3.750780 0.032258
vt 3.168947 0.032257
vt 3.750779 0.979431
vt 3.168946 0.979429
vt 3.168947 0.034410
vt 3.168946 0.981583
vt 3.168946 1.926602
vt 3.750779 1.926603
vt 3.168946 1.928756
vt 1.706530 8.422684
vt 1.975018 8.422684
vt 1.975018 8.019952
vt 3.358716 4.192248
vt 3.627204 4.192248
vt 3.627204 3.789514
vt 3.358715 3.789514
vt 3.880075 0.979432
vt 3.880075 1.926604
vt 3.880079 0.032258
vt 1.169554 8.154198
vt 1.169554 8.355564
vt -0.038646 8.355564
vt -0.038646 6.945997
vt -0.038646 7.348731
vt 1.169554 7.348731
vt 1.169554 6.945997
vt 2.554471 6.902734
vt 2.554471 7.104101
vt 2.957204 7.104102
vt 2.957204 6.902734
vt 2.310632 6.543266
vt 2.109265 6.543266
vt 2.109265 6.945997
vt 2.310632 6.945997
vt 2.176385 8.422684
vt 2.176385 8.019952
vt 2.585411 6.611697
vt 2.585411 6.813063
vt 2.988144 6.813063
vt 2.988144 6.611697
vt 1.169553 7.751463
vt 1.169553 7.348731
vt -0.038646 7.751463
vt 1.169554 7.952828
vn 0.000000 1.000000 0.000000
vn 0.000000 0.000001 -1.000000
vn 0.000000 -0.000000 -1.000000
vn 1.000000 0.000000 0.000000
vn -1.000000 0.000000 0.000000
vn 1.000000 -0.000001 -0.000000
vn -1.000000 -0.000001 -0.000000
vn 0.000000 0.000000 1.000000
usemtl floor_floor.tga
s off
f 178/1/1 186/2/1 188/3/1
f 178/1/1 188/3/1 180/4/1
f 187/3/1 185/2/1 177/1/1
f 187/3/1 177/1/1 179/4/1
f 174/5/2 182/6/2 184/7/2
f 174/5/2 184/7/2 176/8/2
f 183/7/2 181/6/2 173/5/2
f 183/7/2 173/5/2 175/8/2
f 172/1/3 166/9/3 168/10/3
f 172/1/3 168/10/3 170/11/3
f 167/10/3 165/9/3 171/1/3
f 167/10/3 171/1/3 169/11/3
f 158/12/1 160/13/1 162/14/1
f 158/12/1 162/14/1 164/15/1
f 161/14/1 159/13/1 157/12/1
f 161/14/1 157/12/1 163/15/1
f 150/16/1 152/17/1 154/18/1
f 150/16/1 154/18/1 156/19/1
f 153/18/1 151/17/1 149/16/1
f 153/18/1 149/16/1 155/19/1
f 142/20/1 144/21/1 146/22/1
f 142/20/1 146/22/1 148/23/1
f 145/22/1 143/21/1 141/20/1
f 145/22/1 141/20/1 147/23/1
f 122/24/3 118/25/3 120/26/3
f 122/24/3 120/26/3 124/9/3
f 119/26/3 117/25/3 121/24/3
f 119/26/3 121/24/3 123/9/3
f 100/27/1 96/28/1 18/29/1
f 100/27/1 18/29/1 4/30/1
f 17/29/1 95/28/1 99/27/1
f 17/29/1 99/27/1 3/30/1
f 96/28/1 98/31/1 9/32/1
f 96/28/1 9/32/1 18/29/1
f 8/32/1 97/31/1 95/28/1
f 8/32/1 95/28/1 17/29/1
f 74/33/4 78/34/4 76/35/4
f 74/33/4 76/35/4 72/36/4
f 75/35/5 77/34/5 73/33/5
f 75/35/5 73/33/5 71/36/5
f 7/37/1 16/38/1 15/39/1
f 16/38/1 20/40/1 15/39/1
f 19/40/1 16/38/1 14/39/1
f 16/38/1 7/37/1 14/39/1
f 35/41/6 31/42/6 37/43/6
f 35/41/4 37/43/4 39/44/4
f 36/43/7 30/42/7 34/41/7
f 36/43/5 34/41/5 38/44/5
f 4/45/1 18/46/1 11/47/1
f 18/46/1 20/40/1 11/47/1
f 19/40/1 17/46/1 10/47/1
f 17/46/1 3/45/1 10/47/1
f 16/38/1 1/48/1 20/40/1
f 1/48/1 11/47/1 20/40/1
f 10/47/1 1/48/1 19/40/1
f 1/48/1 16/38/1 19/40/1
f 15/39/1 20/40/1 9/49/1
f 20/40/1 18/46/1 9/49/1
f 17/46/1 19/40/1 8/49/1
f 19/40/1 14/39/1 8/49/1
f 2/50/1 21/51/1 13/52/1
f 21/51/1 25/53/1 13/52/1
f 24/53/1 21/51/1 12/52/1
f 21/51/1 2/50/1 12/52/1
f 21/54/1 7/37/1 25/55/1
f 7/37/1 15/39/1 25/55/1
f 14/39/1 7/37/1 24/55/1
f 7/37/1 21/54/1 24/55/1
f 13/52/1 25/53/1 23/56/1
f 13/52/1 23/56/1 6/57/1
f 22/56/1 24/53/1 12/52/1
f 22/56/1 12/52/1 5/57/1
f 25/55/1 15/39/1 23/58/1
f 15/39/1 9/49/1 23/58/1
f 8/49/1 14/39/1 22/58/1
f 14/39/1 24/55/1 22/58/1
f 54/59/4 41/60/4 33/61/4
f 54/59/4 33/61/4 52/2/4
f 32/61/5 40/60/5 53/59/5
f 32/61/5 53/59/5 51/2/5
f 50/62/1 29/63/1 27/64/1
f 50/62/1 27/64/1 48/65/1
f 26/64/1 28/63/1 49/62/1
f 26/64/1 49/62/1 47/65/1
f 44/66/1 13/52/1 6/57/1
f 44/66/1 6/57/1 46/67/1
f 5/57/1 12/52/1 43/66/1
f 5/57/1 43/66/1 45/67/1
f 42/68/1 2/50/1 13/52/1
f 42/68/1 13/52/1 44/66/1
f 12/52/1 2/50/1 42/68/1
f 12/52/1 42/68/1 43/66/1
s 1
f 136/69/3 138/34/3 134/70/3
f 138/34/3 140/71/3 134/70/3
f 139/71/3 137/34/3 133/70/3
f 137/34/3 135/69/3 133/70/3
f 132/72/1 126/73/1 128/74/1
f 132/72/1 128/74/1 130/75/1
f 127/74/1 125/73/1 131/72/1
f 127/74/1 131/72/1 129/75/1
f 116/76/5 108/77/5 102/78/5
f 116/76/5 102/78/5 114/79/5
f 101/78/4 107/77/4 115/76/4
f 101/78/4 115/76/4 113/79/4
f 110/80/4 104/81/4 106/82/4
f 110/80/4 106/82/4 112/83/4
f 105/82/5 103/81/5 109/80/5
f 105/82/5 109/80/5 111/83/5
f 86/60/8 92/84/8 90/85/8
f 86/60/8 90/85/8 84/61/8
f 89/85/8 91/84/8 85/60/8
f 89/85/8 85/60/8 83/61/8
f 80/86/3 88/87/3 94/88/3
f 80/86/3 94/88/3 82/89/3
f 93/88/3 87/87/3 79/86/3
f 93/88/3 79/86/3 81/89/3
f 64/90/1 70/91/1 68/73/1
f 64/90/1 68/73/1 66/92/1
f 67/73/1 69/91/1 63/90/1
f 67/73/1 63/90/1 65/92/1
f 60/33/4 58/93/4 56/9/4
f 60/33/4 56/9/4 62/92/4
f 55/9/5 57/93/5 59/33/5
f 55/9/5 59/33/5 61/92/5
