# Blender3D v249 OBJ File: alkogaleria.blend
# www.blender3d.org
mtllib table.mtl
v 9.297887 -0.000000 -7.449992
v -9.297887 -0.000000 -7.449992
v 4.930508 -0.000000 -7.449993
v -4.930508 -0.000000 -7.449993
v 9.297887 -0.000000 -7.949992
v -9.297887 -0.000000 -7.949992
v 4.930508 -0.000000 -7.949993
v -4.930508 -0.000000 -7.949993
v 9.154268 -0.000000 -7.949992
v -9.154268 -0.000000 -7.949992
v 5.074126 -0.000000 -7.949993
v -5.074126 -0.000000 -7.949993
v 9.154268 -0.000000 -7.449992
v -9.154268 -0.000000 -7.449992
v 5.074126 -0.000000 -7.449993
v -5.074126 -0.000000 -7.449993
v 9.297887 2.119999 -10.049997
v -9.297887 2.119999 -10.049997
v 4.930508 2.119999 -10.049998
v -4.930508 2.119999 -10.049998
v 9.297887 2.119999 -10.549997
v -9.297887 2.119999 -10.549997
v 4.930508 2.119999 -10.549998
v -4.930508 2.119999 -10.549998
v 9.154268 2.119999 -10.549997
v -9.154268 2.119999 -10.549997
v 5.074126 2.119999 -10.549998
v -5.074126 2.119999 -10.549998
v 9.154268 2.119999 -10.049997
v -9.154268 2.119999 -10.049997
v 5.074126 2.119999 -10.049998
v -5.074126 2.119999 -10.049998
v 9.140073 -0.000000 -10.550004
v -9.140073 -0.000000 -10.550004
v 4.773922 -0.000000 -10.550004
v -4.773922 -0.000000 -10.550004
v 9.140073 -0.000000 -10.050004
v -9.140073 -0.000000 -10.050004
v 4.773922 -0.000000 -10.050004
v -4.773922 -0.000000 -10.050004
v 8.996454 -0.000000 -10.050004
v -8.996454 -0.000000 -10.050004
v 4.917540 -0.000000 -10.050004
v -4.917540 -0.000000 -10.050004
v 8.996454 -0.000000 -10.550004
v -8.996454 -0.000000 -10.550004
v 4.917540 -0.000000 -10.550004
v -4.917540 -0.000000 -10.550004
v 9.140073 2.120000 -7.949998
v -9.140073 2.120000 -7.949998
v 4.773922 2.120000 -7.949998
v -4.773922 2.120000 -7.949998
v 9.140073 2.120000 -7.449999
v -9.140073 2.120000 -7.449999
v 4.773922 2.120000 -7.449999
v -4.773922 2.120000 -7.449999
v 8.996454 2.120000 -7.449999
v -8.996454 2.120000 -7.449999
v 4.917540 2.120000 -7.449999
v -4.917540 2.120000 -7.449999
v 8.996454 2.120000 -7.949998
v -8.996454 2.120000 -7.949998
v 4.917540 2.120000 -7.949998
v -4.917540 2.120000 -7.949998
v 10.376045 2.099999 -10.999996
v -10.376045 2.099999 -10.999996
v 10.376045 2.099999 -6.999999
v -10.376045 2.099999 -6.999999
v 3.434953 2.099999 -6.999999
v -3.434953 2.099999 -6.999999
v 3.434954 2.099999 -10.999997
v -3.434954 2.099999 -10.999997
v 10.376047 2.299999 -10.999995
v -10.376047 2.299999 -10.999995
v 10.376043 2.299999 -6.999998
v -10.376043 2.299999 -6.999998
v 3.434952 2.299999 -7.000000
v -3.434952 2.299999 -7.000000
v 3.434954 2.299999 -10.999996
v -3.434954 2.299999 -10.999996
v 10.905498 2.099999 -8.999997
v -10.905498 2.099999 -8.999997
v 2.905501 2.099999 -8.999998
v -2.905501 2.099999 -8.999998
v 10.905498 2.299999 -8.999996
v -10.905498 2.299999 -8.999996
v 2.905501 2.299999 -8.999997
v -2.905501 2.299999 -8.999997
v 10.844956 2.099999 -7.999997
v -10.844956 2.099999 -7.999997
v 2.966042 2.099999 -7.999998
v -2.966042 2.099999 -7.999998
v 10.844955 2.299999 -7.999996
v -10.844955 2.299999 -7.999996
v 2.966041 2.299999 -7.999998
v -2.966041 2.299999 -7.999998
v 10.844956 2.099999 -9.999997
v -10.844956 2.099999 -9.999997
v 2.966043 2.099999 -9.999998
v -2.966043 2.099999 -9.999998
v 10.844958 2.299999 -9.999996
v -10.844958 2.299999 -9.999996
v 2.966042 2.299999 -9.999998
v -2.966042 2.299999 -9.999998
vt 0.062120 -0.589230
vt 0.045841 -0.591926
vt 0.033729 -0.466340
vt 0.017450 -0.469036
vt 0.018272 -0.463020
vt 0.052031 -0.346921
vt 0.036575 -0.343601
vt 0.944991 -0.589988
vt 0.960314 -0.593812
vt 0.920354 -0.708447
vt 0.905031 -0.704623
vt 0.769145 -0.807167
vt 0.756223 -0.789090
vt 0.917952 -0.722700
vt 0.026912 0.499952
vt 0.988644 0.496429
vt 0.969531 0.252026
vt 0.026912 0.256655
vt 0.833394 0.025579
vt 0.071105 0.046896
vt 0.037907 -0.339649
vt 0.101087 -0.235873
vt 0.086963 -0.228601
vt 0.089536 -0.216782
vt 0.245004 -0.143618
vt 0.256555 -0.162709
vt 0.961963 -0.364150
vt 0.976044 -0.360823
vt 0.990233 -0.471340
vt 0.976151 -0.474667
vt 0.991459 -0.477342
vt 0.960299 -0.592663
vt 0.182163 0.970801
vt 0.944452 0.949484
vt 0.988644 0.739726
vt 0.046025 0.744355
vt 0.724200 -0.877980
vt 0.030096 -0.678120
vt 0.270802 -0.068808
vt 0.976202 -0.270248
vt 0.276456 1.618867
vt 0.494171 1.760527
vt 0.503302 1.697778
vt 0.285586 1.556118
vt 0.638261 1.162396
vt 0.638261 1.091410
vt 0.391964 1.091410
vt 0.391964 1.162396
vt 0.368696 1.556696
vt 0.150981 1.415044
vt 0.344256 1.217683
vt 0.590554 1.217683
vt 0.377826 1.493946
vt 0.160111 1.352294
vt 0.344256 1.288671
vt 0.590554 1.288671
vt 0.973236 1.150871
vt 0.708347 1.150871
vt 0.921928 1.210332
vt 0.657035 1.210332
vt 0.657035 1.269798
vt 0.781939 1.312868
vt 0.848922 1.269794
vt 0.973830 1.312868
vt 0.551210 1.493377
vt 0.416605 1.352294
vt 0.609329 1.290128
vt 0.657035 1.234840
vt 0.237941 1.252836
vt 0.245151 1.203277
vt 0.065992 1.140968
vt 0.073202 1.091410
vt 0.825961 1.493948
vt 0.608247 1.352294
vt 0.599117 1.415043
vt 0.816831 1.556696
vt 0.708345 1.091410
vt 0.657035 1.150871
vt 0.921928 1.150871
vt 0.973236 1.091410
vt 0.733721 1.556120
vt 0.951438 1.697770
vt 0.172302 1.252384
vt 0.165091 1.301943
vt 0.337045 1.413818
vt 0.344256 1.364257
vt 0.724592 1.618870
vt 0.942308 1.760520
vt 0.973236 1.210332
vt 0.708347 1.210332
vt 0.921928 1.269794
vt 0.657035 1.269794
vt 0.028157 1.302402
vt 0.134468 1.413818
vt 0.551210 1.619441
vn 0.905402 -0.000001 -0.424554
vn 0.905402 -0.000003 -0.424555
vn -0.905402 -0.000003 -0.424555
vn -0.905402 -0.000001 -0.424554
vn 0.998172 -0.000004 -0.060431
vn 0.998172 -0.000003 -0.060430
vn -0.998172 -0.000003 -0.060430
vn -0.998172 -0.000004 -0.060431
vn -0.998173 0.000000 -0.060429
vn -0.998172 -0.000009 -0.060431
vn 0.998173 0.000000 -0.060429
vn 0.998172 -0.000009 -0.060431
vn -0.905403 -0.000007 -0.424554
vn 0.905403 -0.000007 -0.424554
vn 0.000000 1.000000 0.000000
vn 0.000000 -1.000000 0.000000
vn 0.998172 -0.000004 0.060430
vn 0.998172 -0.000006 0.060429
vn -0.998172 -0.000006 0.060429
vn -0.998172 -0.000004 0.060430
vn 0.905402 -0.000005 0.424554
vn 0.905403 -0.000002 0.424554
vn -0.905402 -0.000005 0.424554
vn -0.905403 -0.000002 0.424554
vn -0.905402 0.000007 0.424555
vn -0.905403 0.000002 0.424554
vn 0.905402 0.000007 0.424555
vn 0.905403 0.000002 0.424554
vn -0.998172 0.000004 0.060431
vn -0.998172 -0.000000 0.060431
vn 0.998172 0.000004 0.060431
vn 0.998172 -0.000000 0.060431
vn -0.000000 0.000005 -1.000000
vn 0.000000 0.000002 1.000000
vn 0.000000 -0.000005 1.000000
vn 0.000000 0.775019 -0.631938
vn -1.000000 0.000000 0.000000
vn 1.000000 0.000000 0.000000
vn 0.000000 -0.775019 0.631938
vn 0.000000 0.775019 0.631937
vn 0.000002 0.775019 0.631937
vn -0.000003 0.775019 0.631937
vn 0.000000 -0.775019 -0.631937
usemtl table_table.tga
s off
f 72/1/1 80/2/1 100/3/1
f 80/2/2 104/4/2 100/3/2
f 103/4/3 79/2/3 99/3/3
f 79/2/4 71/1/4 99/3/4
f 100/3/5 104/5/5 84/6/5
f 104/5/6 88/7/6 84/6/6
f 87/7/7 103/5/7 83/6/7
f 103/5/8 99/3/8 83/6/8
f 82/8/9 86/9/9 102/10/9
f 82/8/10 102/10/10 98/11/10
f 101/10/11 85/9/11 81/8/11
f 101/10/12 81/8/12 97/11/12
f 74/12/13 66/13/13 98/11/13
f 74/12/13 98/11/13 102/14/13
f 97/11/14 65/13/14 73/12/14
f 97/11/14 73/12/14 101/14/14
f 86/15/15 88/16/15 104/17/15
f 86/15/15 104/17/15 102/18/15
f 103/17/15 87/16/15 85/15/15
f 103/17/15 85/15/15 101/18/15
f 102/18/15 104/17/15 80/19/15
f 102/18/15 80/19/15 74/20/15
f 79/19/15 103/17/15 101/18/15
f 79/19/15 101/18/15 73/20/15
f 84/6/16 82/8/16 100/3/16
f 82/8/16 98/11/16 100/3/16
f 97/11/16 81/8/16 99/3/16
f 81/8/16 83/6/16 99/3/16
f 100/3/16 98/11/16 72/1/16
f 98/11/16 66/13/16 72/1/16
f 65/13/16 97/11/16 71/1/16
f 97/11/16 99/3/16 71/1/16
f 84/6/17 88/21/17 92/22/17
f 88/21/18 96/23/18 92/22/18
f 95/23/19 87/21/19 91/22/19
f 87/21/20 83/6/20 91/22/20
f 92/22/21 96/24/21 78/25/21
f 92/22/22 78/25/22 70/26/22
f 77/25/23 95/24/23 91/22/23
f 77/25/24 91/22/24 69/26/24
f 68/27/25 76/28/25 94/29/25
f 68/27/26 94/29/26 90/30/26
f 93/29/27 75/28/27 67/27/27
f 93/29/28 67/27/28 89/30/28
f 90/30/29 94/31/29 86/32/29
f 90/30/30 86/32/30 82/8/30
f 85/32/31 93/31/31 89/30/31
f 85/32/32 89/30/32 81/8/32
f 76/33/15 78/34/15 96/35/15
f 76/33/15 96/35/15 94/36/15
f 95/35/15 77/34/15 75/33/15
f 95/35/15 75/33/15 93/36/15
f 94/36/15 96/35/15 88/16/15
f 94/36/15 88/16/15 86/15/15
f 87/16/15 95/35/15 93/36/15
f 87/16/15 93/36/15 85/15/15
f 70/26/16 68/27/16 90/30/16
f 70/26/16 90/30/16 92/22/16
f 89/30/16 67/27/16 69/26/16
f 89/30/16 69/26/16 91/22/16
f 92/22/16 90/30/16 82/8/16
f 92/22/16 82/8/16 84/6/16
f 81/8/16 89/30/16 91/22/16
f 81/8/16 91/22/16 83/6/16
f 72/1/33 66/13/33 74/37/33
f 72/1/33 74/37/33 80/38/33
f 73/37/33 65/13/33 71/1/33
f 73/37/33 71/1/33 79/38/33
f 78/39/34 76/40/34 70/26/34
f 76/40/35 68/27/35 70/26/35
f 67/27/35 75/40/35 69/26/35
f 75/40/34 77/39/34 69/26/34
f 52/41/36 36/42/36 48/43/36
f 52/41/36 48/43/36 64/44/36
f 47/43/36 35/42/36 51/41/36
f 47/43/36 51/41/36 63/44/36
f 46/45/36 34/46/36 50/47/36
f 46/45/36 50/47/36 62/48/36
f 49/47/36 33/46/36 45/45/36
f 49/47/36 45/45/36 61/48/36
f 44/49/37 60/50/37 64/44/37
f 44/49/37 64/44/37 48/43/37
f 63/44/38 59/50/38 43/49/38
f 63/44/38 43/49/38 47/43/38
f 62/48/38 58/51/38 42/52/38
f 62/48/38 42/52/38 46/45/38
f 41/52/37 57/51/37 61/48/37
f 41/52/37 61/48/37 45/45/37
f 40/53/39 56/54/39 60/50/39
f 40/53/39 60/50/39 44/49/39
f 59/50/39 55/54/39 39/53/39
f 59/50/39 39/53/39 43/49/39
f 58/51/39 54/55/39 38/56/39
f 58/51/39 38/56/39 42/52/39
f 37/56/39 53/55/39 57/51/39
f 37/56/39 57/51/39 41/52/39
f 36/57/38 52/58/38 40/59/38
f 52/58/38 56/60/38 40/59/38
f 55/60/37 51/58/37 39/59/37
f 51/58/37 35/57/37 39/59/37
f 54/61/37 50/62/37 38/63/37
f 50/62/37 34/64/37 38/63/37
f 33/64/38 49/62/38 37/63/38
f 49/62/38 53/61/38 37/63/38
f 36/65/16 40/66/16 44/49/16
f 36/65/16 44/49/16 48/43/16
f 43/49/16 39/66/16 35/65/16
f 43/49/16 35/65/16 47/43/16
f 42/52/16 38/67/16 34/68/16
f 42/52/16 34/68/16 46/45/16
f 33/68/16 37/67/16 41/52/16
f 33/68/16 41/52/16 45/45/16
f 20/69/40 32/70/40 4/71/40
f 32/70/41 16/72/41 4/71/41
f 15/72/42 31/70/42 3/71/42
f 31/70/40 19/69/40 3/71/40
f 18/73/40 2/74/40 14/75/40
f 18/73/40 14/75/40 30/76/40
f 13/75/40 1/74/40 17/73/40
f 13/75/40 17/73/40 29/76/40
f 12/77/37 16/78/37 32/79/37
f 12/77/37 32/79/37 28/80/37
f 31/79/38 15/78/38 11/77/38
f 31/79/38 11/77/38 27/80/38
f 30/76/38 14/75/38 10/81/38
f 30/76/38 10/81/38 26/82/38
f 9/81/37 13/75/37 29/76/37
f 9/81/37 29/76/37 25/82/37
f 8/83/43 12/84/43 28/85/43
f 8/83/43 28/85/43 24/86/43
f 27/85/43 11/84/43 7/83/43
f 27/85/43 7/83/43 23/86/43
f 26/82/43 10/81/43 6/87/43
f 26/82/43 6/87/43 22/88/43
f 5/87/43 9/81/43 25/82/43
f 5/87/43 25/82/43 21/88/43
f 4/71/38 8/83/38 20/69/38
f 8/83/38 24/86/38 20/69/38
f 23/86/37 7/83/37 19/69/37
f 7/83/37 3/71/37 19/69/37
f 22/89/37 6/90/37 18/91/37
f 6/90/37 2/92/37 18/91/37
f 1/92/38 5/90/38 17/91/38
f 5/90/38 21/89/38 17/91/38
f 4/71/16 16/93/16 12/94/16
f 4/71/16 12/94/16 8/83/16
f 11/94/16 15/93/16 3/71/16
f 11/94/16 3/71/16 7/83/16
f 10/75/15 6/81/15 2/81/15
f 10/75/15 2/81/15 14/95/15
f 1/81/15 5/81/15 9/75/15
f 1/81/15 9/75/15 13/95/15
